<svg xmlns="http://www.w3.org/2000/svg" width="49.946" height="49.826" viewBox="0 0 49.946 49.826">
  <g id="Grupo_1" data-name="Grupo 1" transform="translate(279.994 -877)">
    <path id="Caminho_11" data-name="Caminho 11" d="M29.852,26.736l-6.463-.02V20.474a11.691,11.691,0,1,0-23.383,0V37.022c0,6.466,6.494,13.124,12.953,13.124h16.9a11.7,11.7,0,0,0,0-23.409Z" transform="translate(-280 876.681)" fill="#582db4"/>
    <path id="Caminho_12" data-name="Caminho 12" d="M31.978,24.585l-6.455-.02a.012.012,0,0,1-.012-.012V18.464a11.692,11.692,0,1,0-23.383-.141V35.729A12.6,12.6,0,0,0,14.305,48H31.837a11.707,11.707,0,1,0,.141-23.413Z" transform="translate(-277.939 874.589)" fill="#fe50b8" opacity="0.5"/>
    <path id="Caminho_13" data-name="Caminho 13" d="M34.116,22.449l-6.463-.02V16.187a11.691,11.691,0,1,0-23.383,0V34.154c0,7.517,4.763,11.7,11.222,11.7H34.119a11.7,11.7,0,0,0,0-23.409Z" transform="translate(-275.859 872.517)" fill="#f08" opacity="0.5"/>
  </g>
</svg>
