<svg width="141" height="25" viewBox="0 0 141 25" fill="none" xmlns="http://www.w3.org/2000/svg">
<path d="M1.58996 3.01381C1.04532 3.10542 0.678079 3.6212 0.769687 4.16583L2.26252 13.0412C2.35413 13.5858 2.86991 13.9531 3.41454 13.8615C3.95918 13.7699 4.32643 13.2541 4.23482 12.7095L2.90785 4.82024L10.7971 3.49327C11.3417 3.40166 11.7089 2.88588 11.6173 2.34125C11.5257 1.79661 11.0099 1.42936 10.4653 1.52097L1.58996 3.01381ZM140.908 4.25977C141.052 3.72646 140.736 3.17779 140.203 3.0343L131.512 0.695967C130.978 0.552476 130.43 0.868493 130.286 1.40181C130.143 1.93513 130.459 2.48379 130.992 2.62728L138.717 4.7058L136.639 12.4311C136.495 12.9644 136.811 13.5131 137.345 13.6566C137.878 13.8001 138.427 13.4841 138.57 12.9507L140.908 4.25977ZM1.17581 4.81456C22.0159 19.6534 78.9146 40.3048 140.442 4.8665L139.444 3.13342C78.7437 38.0952 22.6924 17.6799 2.33585 3.18536L1.17581 4.81456Z" fill="#DEDAF1"/>
</svg>
